<svg class="rich-terminal" viewBox="0 0 1629 977.1999999999999" xmlns="http://www.w3.org/2000/svg">
    <!-- Generated with Rich https://www.textualize.io -->
    <style>

    @font-face {
        font-family: "Fira Code";
        src: local("FiraCode-Regular"),
                url("https://cdnjs.cloudflare.com/ajax/libs/firacode/6.2.0/woff2/FiraCode-Regular.woff2") format("woff2"),
                url("https://cdnjs.cloudflare.com/ajax/libs/firacode/6.2.0/woff/FiraCode-Regular.woff") format("woff");
        font-style: normal;
        font-weight: 400;
    }
    @font-face {
        font-family: "Fira Code";
        src: local("FiraCode-Bold"),
                url("https://cdnjs.cloudflare.com/ajax/libs/firacode/6.2.0/woff2/FiraCode-Bold.woff2") format("woff2"),
                url("https://cdnjs.cloudflare.com/ajax/libs/firacode/6.2.0/woff/FiraCode-Bold.woff") format("woff");
        font-style: bold;
        font-weight: 700;
    }

    .terminal-2499006378-matrix {
        font-family: Fira Code, monospace;
        font-size: 20px;
        line-height: 24.4px;
        font-variant-east-asian: full-width;
    }

    .terminal-2499006378-title {
        font-size: 18px;
        font-weight: bold;
        font-family: arial;
    }

    .terminal-2499006378-r1 { fill: #c5c8c6 }
.terminal-2499006378-r2 { fill: #ddeaf6 }
.terminal-2499006378-r3 { fill: #a5c8e8 }
.terminal-2499006378-r4 { fill: #073b61 }
.terminal-2499006378-r5 { fill: #e2e2e2;font-weight: bold }
.terminal-2499006378-r6 { fill: #e2e2e2 }
.terminal-2499006378-r7 { fill: #4ebf71 }
.terminal-2499006378-r8 { fill: #fea62b }
.terminal-2499006378-r9 { fill: #353535 }
.terminal-2499006378-r10 { fill: #696f74 }
.terminal-2499006378-r11 { fill: #ddedf9;font-weight: bold }
.terminal-2499006378-r12 { fill: #ddedf9 }
.terminal-2499006378-r13 { fill: #e1e1e1 }
.terminal-2499006378-r14 { fill: #6db2ff }
    </style>

    <defs>
    <clipPath id="terminal-2499006378-clip-terminal">
      <rect x="0" y="0" width="1609.3999999999999" height="926.1999999999999" />
    </clipPath>
    <clipPath id="terminal-2499006378-line-0">
    <rect x="0" y="1.5" width="1610.4" height="24.65"/>
            </clipPath>
<clipPath id="terminal-2499006378-line-1">
    <rect x="0" y="25.9" width="1610.4" height="24.65"/>
            </clipPath>
<clipPath id="terminal-2499006378-line-2">
    <rect x="0" y="50.3" width="1610.4" height="24.65"/>
            </clipPath>
<clipPath id="terminal-2499006378-line-3">
    <rect x="0" y="74.7" width="1610.4" height="24.65"/>
            </clipPath>
<clipPath id="terminal-2499006378-line-4">
    <rect x="0" y="99.1" width="1610.4" height="24.65"/>
            </clipPath>
<clipPath id="terminal-2499006378-line-5">
    <rect x="0" y="123.5" width="1610.4" height="24.65"/>
            </clipPath>
<clipPath id="terminal-2499006378-line-6">
    <rect x="0" y="147.9" width="1610.4" height="24.65"/>
            </clipPath>
<clipPath id="terminal-2499006378-line-7">
    <rect x="0" y="172.3" width="1610.4" height="24.65"/>
            </clipPath>
<clipPath id="terminal-2499006378-line-8">
    <rect x="0" y="196.7" width="1610.4" height="24.65"/>
            </clipPath>
<clipPath id="terminal-2499006378-line-9">
    <rect x="0" y="221.1" width="1610.4" height="24.65"/>
            </clipPath>
<clipPath id="terminal-2499006378-line-10">
    <rect x="0" y="245.5" width="1610.4" height="24.65"/>
            </clipPath>
<clipPath id="terminal-2499006378-line-11">
    <rect x="0" y="269.9" width="1610.4" height="24.65"/>
            </clipPath>
<clipPath id="terminal-2499006378-line-12">
    <rect x="0" y="294.3" width="1610.4" height="24.65"/>
            </clipPath>
<clipPath id="terminal-2499006378-line-13">
    <rect x="0" y="318.7" width="1610.4" height="24.65"/>
            </clipPath>
<clipPath id="terminal-2499006378-line-14">
    <rect x="0" y="343.1" width="1610.4" height="24.65"/>
            </clipPath>
<clipPath id="terminal-2499006378-line-15">
    <rect x="0" y="367.5" width="1610.4" height="24.65"/>
            </clipPath>
<clipPath id="terminal-2499006378-line-16">
    <rect x="0" y="391.9" width="1610.4" height="24.65"/>
            </clipPath>
<clipPath id="terminal-2499006378-line-17">
    <rect x="0" y="416.3" width="1610.4" height="24.65"/>
            </clipPath>
<clipPath id="terminal-2499006378-line-18">
    <rect x="0" y="440.7" width="1610.4" height="24.65"/>
            </clipPath>
<clipPath id="terminal-2499006378-line-19">
    <rect x="0" y="465.1" width="1610.4" height="24.65"/>
            </clipPath>
<clipPath id="terminal-2499006378-line-20">
    <rect x="0" y="489.5" width="1610.4" height="24.65"/>
            </clipPath>
<clipPath id="terminal-2499006378-line-21">
    <rect x="0" y="513.9" width="1610.4" height="24.65"/>
            </clipPath>
<clipPath id="terminal-2499006378-line-22">
    <rect x="0" y="538.3" width="1610.4" height="24.65"/>
            </clipPath>
<clipPath id="terminal-2499006378-line-23">
    <rect x="0" y="562.7" width="1610.4" height="24.65"/>
            </clipPath>
<clipPath id="terminal-2499006378-line-24">
    <rect x="0" y="587.1" width="1610.4" height="24.65"/>
            </clipPath>
<clipPath id="terminal-2499006378-line-25">
    <rect x="0" y="611.5" width="1610.4" height="24.65"/>
            </clipPath>
<clipPath id="terminal-2499006378-line-26">
    <rect x="0" y="635.9" width="1610.4" height="24.65"/>
            </clipPath>
<clipPath id="terminal-2499006378-line-27">
    <rect x="0" y="660.3" width="1610.4" height="24.65"/>
            </clipPath>
<clipPath id="terminal-2499006378-line-28">
    <rect x="0" y="684.7" width="1610.4" height="24.65"/>
            </clipPath>
<clipPath id="terminal-2499006378-line-29">
    <rect x="0" y="709.1" width="1610.4" height="24.65"/>
            </clipPath>
<clipPath id="terminal-2499006378-line-30">
    <rect x="0" y="733.5" width="1610.4" height="24.65"/>
            </clipPath>
<clipPath id="terminal-2499006378-line-31">
    <rect x="0" y="757.9" width="1610.4" height="24.65"/>
            </clipPath>
<clipPath id="terminal-2499006378-line-32">
    <rect x="0" y="782.3" width="1610.4" height="24.65"/>
            </clipPath>
<clipPath id="terminal-2499006378-line-33">
    <rect x="0" y="806.7" width="1610.4" height="24.65"/>
            </clipPath>
<clipPath id="terminal-2499006378-line-34">
    <rect x="0" y="831.1" width="1610.4" height="24.65"/>
            </clipPath>
<clipPath id="terminal-2499006378-line-35">
    <rect x="0" y="855.5" width="1610.4" height="24.65"/>
            </clipPath>
<clipPath id="terminal-2499006378-line-36">
    <rect x="0" y="879.9" width="1610.4" height="24.65"/>
            </clipPath>
    </defs>

    <rect fill="#292929" stroke="rgba(255,255,255,0.35)" stroke-width="1" x="1" y="1" width="1627" height="975.2" rx="8"/><text class="terminal-2499006378-title" fill="#c5c8c6" text-anchor="middle" x="813" y="27">Tewi</text>
            <g transform="translate(26,22)">
            <circle cx="0" cy="0" r="7" fill="#ff5f57"/>
            <circle cx="22" cy="0" r="7" fill="#febc2e"/>
            <circle cx="44" cy="0" r="7" fill="#28c840"/>
            </g>
        
    <g transform="translate(9, 41)" clip-path="url(#terminal-2499006378-clip-terminal)">
    <rect fill="#0065be" x="0" y="1.5" width="12.2" height="24.65" shape-rendering="crispEdges"/><rect fill="#0065be" x="12.2" y="1.5" width="122" height="24.65" shape-rendering="crispEdges"/><rect fill="#0065be" x="134.2" y="1.5" width="12.2" height="24.65" shape-rendering="crispEdges"/><rect fill="#0065be" x="146.4" y="1.5" width="12.2" height="24.65" shape-rendering="crispEdges"/><rect fill="#0065be" x="158.6" y="1.5" width="36.6" height="24.65" shape-rendering="crispEdges"/><rect fill="#0065be" x="195.2" y="1.5" width="12.2" height="24.65" shape-rendering="crispEdges"/><rect fill="#0065be" x="207.4" y="1.5" width="12.2" height="24.65" shape-rendering="crispEdges"/><rect fill="#0065be" x="219.6" y="1.5" width="366" height="24.65" shape-rendering="crispEdges"/><rect fill="#0065be" x="585.6" y="1.5" width="12.2" height="24.65" shape-rendering="crispEdges"/><rect fill="#0065be" x="597.8" y="1.5" width="12.2" height="24.65" shape-rendering="crispEdges"/><rect fill="#0065be" x="610" y="1.5" width="36.6" height="24.65" shape-rendering="crispEdges"/><rect fill="#0065be" x="646.6" y="1.5" width="12.2" height="24.65" shape-rendering="crispEdges"/><rect fill="#0065be" x="658.8" y="1.5" width="12.2" height="24.65" shape-rendering="crispEdges"/><rect fill="#0065be" x="671" y="1.5" width="170.8" height="24.65" shape-rendering="crispEdges"/><rect fill="#0065be" x="841.8" y="1.5" width="12.2" height="24.65" shape-rendering="crispEdges"/><rect fill="#0065be" x="854" y="1.5" width="512.4" height="24.65" shape-rendering="crispEdges"/><rect fill="#0065be" x="1366.4" y="1.5" width="12.2" height="24.65" shape-rendering="crispEdges"/><rect fill="#0065be" x="1378.6" y="1.5" width="85.4" height="24.65" shape-rendering="crispEdges"/><rect fill="#0065be" x="1464" y="1.5" width="12.2" height="24.65" shape-rendering="crispEdges"/><rect fill="#0065be" x="1476.2" y="1.5" width="24.4" height="24.65" shape-rendering="crispEdges"/><rect fill="#0065be" x="1500.6" y="1.5" width="12.2" height="24.65" shape-rendering="crispEdges"/><rect fill="#0065be" x="1512.8" y="1.5" width="85.4" height="24.65" shape-rendering="crispEdges"/><rect fill="#0065be" x="1598.2" y="1.5" width="12.2" height="24.65" shape-rendering="crispEdges"/><rect fill="#212121" x="0" y="25.9" width="1610.4" height="24.65" shape-rendering="crispEdges"/><rect fill="#212121" x="0" y="50.3" width="12.2" height="24.65" shape-rendering="crispEdges"/><rect fill="#212121" x="12.2" y="50.3" width="353.8" height="24.65" shape-rendering="crispEdges"/><rect fill="#212121" x="366" y="50.3" width="915" height="24.65" shape-rendering="crispEdges"/><rect fill="#212121" x="1281" y="50.3" width="36.6" height="24.65" shape-rendering="crispEdges"/><rect fill="#212121" x="1317.6" y="50.3" width="36.6" height="24.65" shape-rendering="crispEdges"/><rect fill="#212121" x="1354.2" y="50.3" width="73.2" height="24.65" shape-rendering="crispEdges"/><rect fill="#212121" x="1427.4" y="50.3" width="36.6" height="24.65" shape-rendering="crispEdges"/><rect fill="#212121" x="1464" y="50.3" width="36.6" height="24.65" shape-rendering="crispEdges"/><rect fill="#212121" x="1500.6" y="50.3" width="97.6" height="24.65" shape-rendering="crispEdges"/><rect fill="#212121" x="1598.2" y="50.3" width="12.2" height="24.65" shape-rendering="crispEdges"/><rect fill="#212121" x="0" y="74.7" width="12.2" height="24.65" shape-rendering="crispEdges"/><rect fill="#212121" x="12.2" y="74.7" width="1586" height="24.65" shape-rendering="crispEdges"/><rect fill="#212121" x="1598.2" y="74.7" width="12.2" height="24.65" shape-rendering="crispEdges"/><rect fill="#212121" x="0" y="99.1" width="1610.4" height="24.65" shape-rendering="crispEdges"/><rect fill="#212121" x="0" y="123.5" width="12.2" height="24.65" shape-rendering="crispEdges"/><rect fill="#212121" x="12.2" y="123.5" width="353.8" height="24.65" shape-rendering="crispEdges"/><rect fill="#212121" x="366" y="123.5" width="915" height="24.65" shape-rendering="crispEdges"/><rect fill="#212121" x="1281" y="123.5" width="36.6" height="24.65" shape-rendering="crispEdges"/><rect fill="#212121" x="1317.6" y="123.5" width="36.6" height="24.65" shape-rendering="crispEdges"/><rect fill="#212121" x="1354.2" y="123.5" width="73.2" height="24.65" shape-rendering="crispEdges"/><rect fill="#212121" x="1427.4" y="123.5" width="36.6" height="24.65" shape-rendering="crispEdges"/><rect fill="#212121" x="1464" y="123.5" width="85.4" height="24.65" shape-rendering="crispEdges"/><rect fill="#212121" x="1549.4" y="123.5" width="48.8" height="24.65" shape-rendering="crispEdges"/><rect fill="#212121" x="1598.2" y="123.5" width="12.2" height="24.65" shape-rendering="crispEdges"/><rect fill="#212121" x="0" y="147.9" width="12.2" height="24.65" shape-rendering="crispEdges"/><rect fill="#212121" x="12.2" y="147.9" width="122" height="24.65" shape-rendering="crispEdges"/><rect fill="#212121" x="134.2" y="147.9" width="12.2" height="24.65" shape-rendering="crispEdges"/><rect fill="#212121" x="146.4" y="147.9" width="1451.8" height="24.65" shape-rendering="crispEdges"/><rect fill="#212121" x="1598.2" y="147.9" width="12.2" height="24.65" shape-rendering="crispEdges"/><rect fill="#212121" x="0" y="172.3" width="1610.4" height="24.65" shape-rendering="crispEdges"/><rect fill="#212121" x="0" y="196.7" width="12.2" height="24.65" shape-rendering="crispEdges"/><rect fill="#212121" x="12.2" y="196.7" width="378.2" height="24.65" shape-rendering="crispEdges"/><rect fill="#212121" x="390.4" y="196.7" width="890.6" height="24.65" shape-rendering="crispEdges"/><rect fill="#212121" x="1281" y="196.7" width="36.6" height="24.65" shape-rendering="crispEdges"/><rect fill="#212121" x="1317.6" y="196.7" width="36.6" height="24.65" shape-rendering="crispEdges"/><rect fill="#212121" x="1354.2" y="196.7" width="73.2" height="24.65" shape-rendering="crispEdges"/><rect fill="#212121" x="1427.4" y="196.7" width="36.6" height="24.65" shape-rendering="crispEdges"/><rect fill="#212121" x="1464" y="196.7" width="36.6" height="24.65" shape-rendering="crispEdges"/><rect fill="#212121" x="1500.6" y="196.7" width="97.6" height="24.65" shape-rendering="crispEdges"/><rect fill="#212121" x="1598.2" y="196.7" width="12.2" height="24.65" shape-rendering="crispEdges"/><rect fill="#212121" x="0" y="221.1" width="12.2" height="24.65" shape-rendering="crispEdges"/><rect fill="#212121" x="12.2" y="221.1" width="1586" height="24.65" shape-rendering="crispEdges"/><rect fill="#212121" x="1598.2" y="221.1" width="12.2" height="24.65" shape-rendering="crispEdges"/><rect fill="#212121" x="0" y="245.5" width="1610.4" height="24.65" shape-rendering="crispEdges"/><rect fill="#212121" x="0" y="269.9" width="12.2" height="24.65" shape-rendering="crispEdges"/><rect fill="#212121" x="12.2" y="269.9" width="427" height="24.65" shape-rendering="crispEdges"/><rect fill="#212121" x="439.2" y="269.9" width="841.8" height="24.65" shape-rendering="crispEdges"/><rect fill="#212121" x="1281" y="269.9" width="36.6" height="24.65" shape-rendering="crispEdges"/><rect fill="#212121" x="1317.6" y="269.9" width="36.6" height="24.65" shape-rendering="crispEdges"/><rect fill="#212121" x="1354.2" y="269.9" width="73.2" height="24.65" shape-rendering="crispEdges"/><rect fill="#212121" x="1427.4" y="269.9" width="36.6" height="24.65" shape-rendering="crispEdges"/><rect fill="#212121" x="1464" y="269.9" width="85.4" height="24.65" shape-rendering="crispEdges"/><rect fill="#212121" x="1549.4" y="269.9" width="48.8" height="24.65" shape-rendering="crispEdges"/><rect fill="#212121" x="1598.2" y="269.9" width="12.2" height="24.65" shape-rendering="crispEdges"/><rect fill="#212121" x="0" y="294.3" width="12.2" height="24.65" shape-rendering="crispEdges"/><rect fill="#212121" x="12.2" y="294.3" width="683.2" height="24.65" shape-rendering="crispEdges"/><rect fill="#212121" x="695.4" y="294.3" width="12.2" height="24.65" shape-rendering="crispEdges"/><rect fill="#212121" x="707.6" y="294.3" width="890.6" height="24.65" shape-rendering="crispEdges"/><rect fill="#212121" x="1598.2" y="294.3" width="12.2" height="24.65" shape-rendering="crispEdges"/><rect fill="#212121" x="0" y="318.7" width="1610.4" height="24.65" shape-rendering="crispEdges"/><rect fill="#212121" x="0" y="343.1" width="12.2" height="24.65" shape-rendering="crispEdges"/><rect fill="#212121" x="12.2" y="343.1" width="414.8" height="24.65" shape-rendering="crispEdges"/><rect fill="#212121" x="427" y="343.1" width="854" height="24.65" shape-rendering="crispEdges"/><rect fill="#212121" x="1281" y="343.1" width="36.6" height="24.65" shape-rendering="crispEdges"/><rect fill="#212121" x="1317.6" y="343.1" width="36.6" height="24.65" shape-rendering="crispEdges"/><rect fill="#212121" x="1354.2" y="343.1" width="73.2" height="24.65" shape-rendering="crispEdges"/><rect fill="#212121" x="1427.4" y="343.1" width="36.6" height="24.65" shape-rendering="crispEdges"/><rect fill="#212121" x="1464" y="343.1" width="36.6" height="24.65" shape-rendering="crispEdges"/><rect fill="#212121" x="1500.6" y="343.1" width="97.6" height="24.65" shape-rendering="crispEdges"/><rect fill="#212121" x="1598.2" y="343.1" width="12.2" height="24.65" shape-rendering="crispEdges"/><rect fill="#212121" x="0" y="367.5" width="12.2" height="24.65" shape-rendering="crispEdges"/><rect fill="#212121" x="12.2" y="367.5" width="1586" height="24.65" shape-rendering="crispEdges"/><rect fill="#212121" x="1598.2" y="367.5" width="12.2" height="24.65" shape-rendering="crispEdges"/><rect fill="#212121" x="0" y="391.9" width="1610.4" height="24.65" shape-rendering="crispEdges"/><rect fill="#212121" x="0" y="416.3" width="12.2" height="24.65" shape-rendering="crispEdges"/><rect fill="#212121" x="12.2" y="416.3" width="329.4" height="24.65" shape-rendering="crispEdges"/><rect fill="#212121" x="341.6" y="416.3" width="939.4" height="24.65" shape-rendering="crispEdges"/><rect fill="#212121" x="1281" y="416.3" width="36.6" height="24.65" shape-rendering="crispEdges"/><rect fill="#212121" x="1317.6" y="416.3" width="36.6" height="24.65" shape-rendering="crispEdges"/><rect fill="#212121" x="1354.2" y="416.3" width="73.2" height="24.65" shape-rendering="crispEdges"/><rect fill="#212121" x="1427.4" y="416.3" width="36.6" height="24.65" shape-rendering="crispEdges"/><rect fill="#212121" x="1464" y="416.3" width="73.2" height="24.65" shape-rendering="crispEdges"/><rect fill="#212121" x="1537.2" y="416.3" width="61" height="24.65" shape-rendering="crispEdges"/><rect fill="#212121" x="1598.2" y="416.3" width="12.2" height="24.65" shape-rendering="crispEdges"/><rect fill="#212121" x="0" y="440.7" width="12.2" height="24.65" shape-rendering="crispEdges"/><rect fill="#212121" x="12.2" y="440.7" width="12.2" height="24.65" shape-rendering="crispEdges"/><rect fill="#212121" x="24.4" y="440.7" width="12.2" height="24.65" shape-rendering="crispEdges"/><rect fill="#212121" x="36.6" y="440.7" width="1561.6" height="24.65" shape-rendering="crispEdges"/><rect fill="#212121" x="1598.2" y="440.7" width="12.2" height="24.65" shape-rendering="crispEdges"/><rect fill="#212121" x="0" y="465.1" width="1610.4" height="24.65" shape-rendering="crispEdges"/><rect fill="#212121" x="0" y="489.5" width="12.2" height="24.65" shape-rendering="crispEdges"/><rect fill="#212121" x="12.2" y="489.5" width="390.4" height="24.65" shape-rendering="crispEdges"/><rect fill="#212121" x="402.6" y="489.5" width="878.4" height="24.65" shape-rendering="crispEdges"/><rect fill="#212121" x="1281" y="489.5" width="36.6" height="24.65" shape-rendering="crispEdges"/><rect fill="#212121" x="1317.6" y="489.5" width="36.6" height="24.65" shape-rendering="crispEdges"/><rect fill="#212121" x="1354.2" y="489.5" width="73.2" height="24.65" shape-rendering="crispEdges"/><rect fill="#212121" x="1427.4" y="489.5" width="36.6" height="24.65" shape-rendering="crispEdges"/><rect fill="#212121" x="1464" y="489.5" width="36.6" height="24.65" shape-rendering="crispEdges"/><rect fill="#212121" x="1500.6" y="489.5" width="97.6" height="24.65" shape-rendering="crispEdges"/><rect fill="#212121" x="1598.2" y="489.5" width="12.2" height="24.65" shape-rendering="crispEdges"/><rect fill="#212121" x="0" y="513.9" width="12.2" height="24.65" shape-rendering="crispEdges"/><rect fill="#212121" x="12.2" y="513.9" width="1586" height="24.65" shape-rendering="crispEdges"/><rect fill="#212121" x="1598.2" y="513.9" width="12.2" height="24.65" shape-rendering="crispEdges"/><rect fill="#0178d4" x="0" y="538.3" width="1610.4" height="24.65" shape-rendering="crispEdges"/><rect fill="#0178d4" x="0" y="562.7" width="12.2" height="24.65" shape-rendering="crispEdges"/><rect fill="#0178d4" x="12.2" y="562.7" width="439.2" height="24.65" shape-rendering="crispEdges"/><rect fill="#0178d4" x="451.4" y="562.7" width="829.6" height="24.65" shape-rendering="crispEdges"/><rect fill="#0178d4" x="1281" y="562.7" width="36.6" height="24.65" shape-rendering="crispEdges"/><rect fill="#0178d4" x="1317.6" y="562.7" width="36.6" height="24.65" shape-rendering="crispEdges"/><rect fill="#0178d4" x="1354.2" y="562.7" width="73.2" height="24.65" shape-rendering="crispEdges"/><rect fill="#0178d4" x="1427.4" y="562.7" width="36.6" height="24.65" shape-rendering="crispEdges"/><rect fill="#0178d4" x="1464" y="562.7" width="36.6" height="24.65" shape-rendering="crispEdges"/><rect fill="#0178d4" x="1500.6" y="562.7" width="97.6" height="24.65" shape-rendering="crispEdges"/><rect fill="#0178d4" x="1598.2" y="562.7" width="12.2" height="24.65" shape-rendering="crispEdges"/><rect fill="#0178d4" x="0" y="587.1" width="12.2" height="24.65" shape-rendering="crispEdges"/><rect fill="#0178d4" x="12.2" y="587.1" width="1586" height="24.65" shape-rendering="crispEdges"/><rect fill="#0178d4" x="1598.2" y="587.1" width="12.2" height="24.65" shape-rendering="crispEdges"/><rect fill="#212121" x="0" y="611.5" width="1610.4" height="24.65" shape-rendering="crispEdges"/><rect fill="#212121" x="0" y="635.9" width="12.2" height="24.65" shape-rendering="crispEdges"/><rect fill="#212121" x="12.2" y="635.9" width="390.4" height="24.65" shape-rendering="crispEdges"/><rect fill="#212121" x="402.6" y="635.9" width="878.4" height="24.65" shape-rendering="crispEdges"/><rect fill="#212121" x="1281" y="635.9" width="36.6" height="24.65" shape-rendering="crispEdges"/><rect fill="#212121" x="1317.6" y="635.9" width="36.6" height="24.65" shape-rendering="crispEdges"/><rect fill="#212121" x="1354.2" y="635.9" width="73.2" height="24.65" shape-rendering="crispEdges"/><rect fill="#212121" x="1427.4" y="635.9" width="36.6" height="24.65" shape-rendering="crispEdges"/><rect fill="#212121" x="1464" y="635.9" width="36.6" height="24.65" shape-rendering="crispEdges"/><rect fill="#212121" x="1500.6" y="635.9" width="97.6" height="24.65" shape-rendering="crispEdges"/><rect fill="#212121" x="1598.2" y="635.9" width="12.2" height="24.65" shape-rendering="crispEdges"/><rect fill="#212121" x="0" y="660.3" width="12.2" height="24.65" shape-rendering="crispEdges"/><rect fill="#212121" x="12.2" y="660.3" width="1586" height="24.65" shape-rendering="crispEdges"/><rect fill="#212121" x="1598.2" y="660.3" width="12.2" height="24.65" shape-rendering="crispEdges"/><rect fill="#212121" x="0" y="684.7" width="1610.4" height="24.65" shape-rendering="crispEdges"/><rect fill="#212121" x="0" y="709.1" width="12.2" height="24.65" shape-rendering="crispEdges"/><rect fill="#212121" x="12.2" y="709.1" width="439.2" height="24.65" shape-rendering="crispEdges"/><rect fill="#212121" x="451.4" y="709.1" width="829.6" height="24.65" shape-rendering="crispEdges"/><rect fill="#212121" x="1281" y="709.1" width="36.6" height="24.65" shape-rendering="crispEdges"/><rect fill="#212121" x="1317.6" y="709.1" width="36.6" height="24.65" shape-rendering="crispEdges"/><rect fill="#212121" x="1354.2" y="709.1" width="73.2" height="24.65" shape-rendering="crispEdges"/><rect fill="#212121" x="1427.4" y="709.1" width="36.6" height="24.65" shape-rendering="crispEdges"/><rect fill="#212121" x="1464" y="709.1" width="36.6" height="24.65" shape-rendering="crispEdges"/><rect fill="#212121" x="1500.6" y="709.1" width="97.6" height="24.65" shape-rendering="crispEdges"/><rect fill="#212121" x="1598.2" y="709.1" width="12.2" height="24.65" shape-rendering="crispEdges"/><rect fill="#212121" x="0" y="733.5" width="12.2" height="24.65" shape-rendering="crispEdges"/><rect fill="#212121" x="12.2" y="733.5" width="1586" height="24.65" shape-rendering="crispEdges"/><rect fill="#212121" x="1598.2" y="733.5" width="12.2" height="24.65" shape-rendering="crispEdges"/><rect fill="#212121" x="0" y="757.9" width="1610.4" height="24.65" shape-rendering="crispEdges"/><rect fill="#212121" x="0" y="782.3" width="12.2" height="24.65" shape-rendering="crispEdges"/><rect fill="#212121" x="12.2" y="782.3" width="366" height="24.65" shape-rendering="crispEdges"/><rect fill="#212121" x="378.2" y="782.3" width="902.8" height="24.65" shape-rendering="crispEdges"/><rect fill="#212121" x="1281" y="782.3" width="36.6" height="24.65" shape-rendering="crispEdges"/><rect fill="#212121" x="1317.6" y="782.3" width="36.6" height="24.65" shape-rendering="crispEdges"/><rect fill="#212121" x="1354.2" y="782.3" width="73.2" height="24.65" shape-rendering="crispEdges"/><rect fill="#212121" x="1427.4" y="782.3" width="36.6" height="24.65" shape-rendering="crispEdges"/><rect fill="#212121" x="1464" y="782.3" width="36.6" height="24.65" shape-rendering="crispEdges"/><rect fill="#212121" x="1500.6" y="782.3" width="97.6" height="24.65" shape-rendering="crispEdges"/><rect fill="#212121" x="1598.2" y="782.3" width="12.2" height="24.65" shape-rendering="crispEdges"/><rect fill="#212121" x="0" y="806.7" width="12.2" height="24.65" shape-rendering="crispEdges"/><rect fill="#212121" x="12.2" y="806.7" width="1586" height="24.65" shape-rendering="crispEdges"/><rect fill="#212121" x="1598.2" y="806.7" width="12.2" height="24.65" shape-rendering="crispEdges"/><rect fill="#1e1e1e" x="0" y="831.1" width="1610.4" height="24.65" shape-rendering="crispEdges"/><rect fill="#1e1e1e" x="0" y="855.5" width="1610.4" height="24.65" shape-rendering="crispEdges"/><rect fill="#1e1e1e" x="0" y="879.9" width="1610.4" height="24.65" shape-rendering="crispEdges"/><rect fill="#0065be" x="0" y="904.3" width="12.2" height="24.65" shape-rendering="crispEdges"/><rect fill="#0065be" x="12.2" y="904.3" width="634.4" height="24.65" shape-rendering="crispEdges"/><rect fill="#0065be" x="646.6" y="904.3" width="12.2" height="24.65" shape-rendering="crispEdges"/><rect fill="#0065be" x="658.8" y="904.3" width="573.4" height="24.65" shape-rendering="crispEdges"/><rect fill="#0065be" x="1232.2" y="904.3" width="12.2" height="24.65" shape-rendering="crispEdges"/><rect fill="#0065be" x="1244.4" y="904.3" width="0" height="24.65" shape-rendering="crispEdges"/><rect fill="#0065be" x="1244.4" y="904.3" width="12.2" height="24.65" shape-rendering="crispEdges"/><rect fill="#0065be" x="1256.6" y="904.3" width="12.2" height="24.65" shape-rendering="crispEdges"/><rect fill="#0065be" x="1268.8" y="904.3" width="0" height="24.65" shape-rendering="crispEdges"/><rect fill="#0065be" x="1268.8" y="904.3" width="12.2" height="24.65" shape-rendering="crispEdges"/><rect fill="#0065be" x="1281" y="904.3" width="12.2" height="24.65" shape-rendering="crispEdges"/><rect fill="#0065be" x="1293.2" y="904.3" width="12.2" height="24.65" shape-rendering="crispEdges"/><rect fill="#0065be" x="1305.4" y="904.3" width="12.2" height="24.65" shape-rendering="crispEdges"/><rect fill="#0065be" x="1317.6" y="904.3" width="36.6" height="24.65" shape-rendering="crispEdges"/><rect fill="#0065be" x="1354.2" y="904.3" width="61" height="24.65" shape-rendering="crispEdges"/><rect fill="#0065be" x="1415.2" y="904.3" width="12.2" height="24.65" shape-rendering="crispEdges"/><rect fill="#0065be" x="1427.4" y="904.3" width="12.2" height="24.65" shape-rendering="crispEdges"/><rect fill="#0065be" x="1439.6" y="904.3" width="12.2" height="24.65" shape-rendering="crispEdges"/><rect fill="#0065be" x="1451.8" y="904.3" width="12.2" height="24.65" shape-rendering="crispEdges"/><rect fill="#0065be" x="1464" y="904.3" width="85.4" height="24.65" shape-rendering="crispEdges"/><rect fill="#0065be" x="1549.4" y="904.3" width="48.8" height="24.65" shape-rendering="crispEdges"/><rect fill="#0065be" x="1598.2" y="904.3" width="12.2" height="24.65" shape-rendering="crispEdges"/>
    <g class="terminal-2499006378-matrix">
    <text class="terminal-2499006378-r2" x="12.2" y="20" textLength="122" clip-path="url(#terminal-2499006378-line-0)">Tewi&#160;0.2.0</text><text class="terminal-2499006378-r3" x="158.6" y="20" textLength="36.6" clip-path="url(#terminal-2499006378-line-0)">»»»</text><text class="terminal-2499006378-r2" x="219.6" y="20" textLength="366" clip-path="url(#terminal-2499006378-line-0)">Transmission&#160;3.00&#160;(bb6b5a062e)</text><text class="terminal-2499006378-r3" x="610" y="20" textLength="36.6" clip-path="url(#terminal-2499006378-line-0)">»»»</text><text class="terminal-2499006378-r2" x="671" y="20" textLength="170.8" clip-path="url(#terminal-2499006378-line-0)">localhost:9091</text><text class="terminal-2499006378-r2" x="1378.6" y="20" textLength="85.4" clip-path="url(#terminal-2499006378-line-0)">?:&#160;Help</text><text class="terminal-2499006378-r2" x="1512.8" y="20" textLength="85.4" clip-path="url(#terminal-2499006378-line-0)">Q:&#160;Quit</text><text class="terminal-2499006378-r1" x="1610.4" y="20" textLength="12.2" clip-path="url(#terminal-2499006378-line-0)">
</text><text class="terminal-2499006378-r4" x="0" y="44.4" textLength="1610.4" clip-path="url(#terminal-2499006378-line-1)">────────────────────────────────────────────────────────────────────────────────────────────────────────────────────────────────────</text><text class="terminal-2499006378-r1" x="1610.4" y="44.4" textLength="12.2" clip-path="url(#terminal-2499006378-line-1)">
</text><text class="terminal-2499006378-r5" x="12.2" y="68.8" textLength="353.8" clip-path="url(#terminal-2499006378-line-2)">debian-12.6.0-amd64-DVD-1.iso</text><text class="terminal-2499006378-r6" x="1281" y="68.8" textLength="36.6" clip-path="url(#terminal-2499006378-line-2)">&#160;↑&#160;</text><text class="terminal-2499006378-r6" x="1317.6" y="68.8" textLength="36.6" clip-path="url(#terminal-2499006378-line-2)">0&#160;B</text><text class="terminal-2499006378-r6" x="1427.4" y="68.8" textLength="36.6" clip-path="url(#terminal-2499006378-line-2)">&#160;↓&#160;</text><text class="terminal-2499006378-r6" x="1464" y="68.8" textLength="36.6" clip-path="url(#terminal-2499006378-line-2)">0&#160;B</text><text class="terminal-2499006378-r1" x="1610.4" y="68.8" textLength="12.2" clip-path="url(#terminal-2499006378-line-2)">
</text><text class="terminal-2499006378-r7" x="12.2" y="93.2" textLength="1586" clip-path="url(#terminal-2499006378-line-3)">━━━━━━━━━━━━━━━━━━━━━━━━━━━━━━━━━━━━━━━━━━━━━━━━━━━━━━━━━━━━━━━━━━━━━━━━━━━━━━━━━━━━━━━━━━━━━━━━━━━━━━━━━━━━━━━━━━━━━━━━━━━━━━━━━━</text><text class="terminal-2499006378-r1" x="1610.4" y="93.2" textLength="12.2" clip-path="url(#terminal-2499006378-line-3)">
</text><text class="terminal-2499006378-r4" x="0" y="117.6" textLength="1610.4" clip-path="url(#terminal-2499006378-line-4)">────────────────────────────────────────────────────────────────────────────────────────────────────────────────────────────────────</text><text class="terminal-2499006378-r1" x="1610.4" y="117.6" textLength="12.2" clip-path="url(#terminal-2499006378-line-4)">
</text><text class="terminal-2499006378-r5" x="12.2" y="142" textLength="353.8" clip-path="url(#terminal-2499006378-line-5)">debian-12.7.0-amd64-DVD-1.iso</text><text class="terminal-2499006378-r6" x="1281" y="142" textLength="36.6" clip-path="url(#terminal-2499006378-line-5)">&#160;↑&#160;</text><text class="terminal-2499006378-r6" x="1317.6" y="142" textLength="36.6" clip-path="url(#terminal-2499006378-line-5)">0&#160;B</text><text class="terminal-2499006378-r6" x="1427.4" y="142" textLength="36.6" clip-path="url(#terminal-2499006378-line-5)">&#160;↓&#160;</text><text class="terminal-2499006378-r6" x="1464" y="142" textLength="85.4" clip-path="url(#terminal-2499006378-line-5)">1.52&#160;MB</text><text class="terminal-2499006378-r1" x="1610.4" y="142" textLength="12.2" clip-path="url(#terminal-2499006378-line-5)">
</text><text class="terminal-2499006378-r8" x="12.2" y="166.4" textLength="122" clip-path="url(#terminal-2499006378-line-6)">━━━━━━━━━━</text><text class="terminal-2499006378-r8" x="134.2" y="166.4" textLength="12.2" clip-path="url(#terminal-2499006378-line-6)">╸</text><text class="terminal-2499006378-r9" x="146.4" y="166.4" textLength="1451.8" clip-path="url(#terminal-2499006378-line-6)">━━━━━━━━━━━━━━━━━━━━━━━━━━━━━━━━━━━━━━━━━━━━━━━━━━━━━━━━━━━━━━━━━━━━━━━━━━━━━━━━━━━━━━━━━━━━━━━━━━━━━━━━━━━━━━━━━━━━━━━</text><text class="terminal-2499006378-r1" x="1610.4" y="166.4" textLength="12.2" clip-path="url(#terminal-2499006378-line-6)">
</text><text class="terminal-2499006378-r4" x="0" y="190.8" textLength="1610.4" clip-path="url(#terminal-2499006378-line-7)">────────────────────────────────────────────────────────────────────────────────────────────────────────────────────────────────────</text><text class="terminal-2499006378-r1" x="1610.4" y="190.8" textLength="12.2" clip-path="url(#terminal-2499006378-line-7)">
</text><text class="terminal-2499006378-r5" x="12.2" y="215.2" textLength="378.2" clip-path="url(#terminal-2499006378-line-8)">debian-12.7.0-amd64-netinst.iso</text><text class="terminal-2499006378-r6" x="1281" y="215.2" textLength="36.6" clip-path="url(#terminal-2499006378-line-8)">&#160;↑&#160;</text><text class="terminal-2499006378-r6" x="1317.6" y="215.2" textLength="36.6" clip-path="url(#terminal-2499006378-line-8)">0&#160;B</text><text class="terminal-2499006378-r6" x="1427.4" y="215.2" textLength="36.6" clip-path="url(#terminal-2499006378-line-8)">&#160;↓&#160;</text><text class="terminal-2499006378-r6" x="1464" y="215.2" textLength="36.6" clip-path="url(#terminal-2499006378-line-8)">0&#160;B</text><text class="terminal-2499006378-r1" x="1610.4" y="215.2" textLength="12.2" clip-path="url(#terminal-2499006378-line-8)">
</text><text class="terminal-2499006378-r7" x="12.2" y="239.6" textLength="1586" clip-path="url(#terminal-2499006378-line-9)">━━━━━━━━━━━━━━━━━━━━━━━━━━━━━━━━━━━━━━━━━━━━━━━━━━━━━━━━━━━━━━━━━━━━━━━━━━━━━━━━━━━━━━━━━━━━━━━━━━━━━━━━━━━━━━━━━━━━━━━━━━━━━━━━━━</text><text class="terminal-2499006378-r1" x="1610.4" y="239.6" textLength="12.2" clip-path="url(#terminal-2499006378-line-9)">
</text><text class="terminal-2499006378-r4" x="0" y="264" textLength="1610.4" clip-path="url(#terminal-2499006378-line-10)">────────────────────────────────────────────────────────────────────────────────────────────────────────────────────────────────────</text><text class="terminal-2499006378-r1" x="1610.4" y="264" textLength="12.2" clip-path="url(#terminal-2499006378-line-10)">
</text><text class="terminal-2499006378-r5" x="12.2" y="288.4" textLength="427" clip-path="url(#terminal-2499006378-line-11)">debian-edu-12.7.0-amd64-netinst.iso</text><text class="terminal-2499006378-r6" x="1281" y="288.4" textLength="36.6" clip-path="url(#terminal-2499006378-line-11)">&#160;↑&#160;</text><text class="terminal-2499006378-r6" x="1317.6" y="288.4" textLength="36.6" clip-path="url(#terminal-2499006378-line-11)">0&#160;B</text><text class="terminal-2499006378-r6" x="1427.4" y="288.4" textLength="36.6" clip-path="url(#terminal-2499006378-line-11)">&#160;↓&#160;</text><text class="terminal-2499006378-r6" x="1464" y="288.4" textLength="85.4" clip-path="url(#terminal-2499006378-line-11)">2.93&#160;MB</text><text class="terminal-2499006378-r1" x="1610.4" y="288.4" textLength="12.2" clip-path="url(#terminal-2499006378-line-11)">
</text><text class="terminal-2499006378-r8" x="12.2" y="312.8" textLength="683.2" clip-path="url(#terminal-2499006378-line-12)">━━━━━━━━━━━━━━━━━━━━━━━━━━━━━━━━━━━━━━━━━━━━━━━━━━━━━━━━</text><text class="terminal-2499006378-r8" x="695.4" y="312.8" textLength="12.2" clip-path="url(#terminal-2499006378-line-12)">╸</text><text class="terminal-2499006378-r9" x="707.6" y="312.8" textLength="890.6" clip-path="url(#terminal-2499006378-line-12)">━━━━━━━━━━━━━━━━━━━━━━━━━━━━━━━━━━━━━━━━━━━━━━━━━━━━━━━━━━━━━━━━━━━━━━━━━</text><text class="terminal-2499006378-r1" x="1610.4" y="312.8" textLength="12.2" clip-path="url(#terminal-2499006378-line-12)">
</text><text class="terminal-2499006378-r4" x="0" y="337.2" textLength="1610.4" clip-path="url(#terminal-2499006378-line-13)">────────────────────────────────────────────────────────────────────────────────────────────────────────────────────────────────────</text><text class="terminal-2499006378-r1" x="1610.4" y="337.2" textLength="12.2" clip-path="url(#terminal-2499006378-line-13)">
</text><text class="terminal-2499006378-r5" x="12.2" y="361.6" textLength="414.8" clip-path="url(#terminal-2499006378-line-14)">debian-live-12.6.0-amd64-gnome.iso</text><text class="terminal-2499006378-r6" x="1281" y="361.6" textLength="36.6" clip-path="url(#terminal-2499006378-line-14)">&#160;↑&#160;</text><text class="terminal-2499006378-r6" x="1317.6" y="361.6" textLength="36.6" clip-path="url(#terminal-2499006378-line-14)">0&#160;B</text><text class="terminal-2499006378-r6" x="1427.4" y="361.6" textLength="36.6" clip-path="url(#terminal-2499006378-line-14)">&#160;↓&#160;</text><text class="terminal-2499006378-r6" x="1464" y="361.6" textLength="36.6" clip-path="url(#terminal-2499006378-line-14)">0&#160;B</text><text class="terminal-2499006378-r1" x="1610.4" y="361.6" textLength="12.2" clip-path="url(#terminal-2499006378-line-14)">
</text><text class="terminal-2499006378-r7" x="12.2" y="386" textLength="1586" clip-path="url(#terminal-2499006378-line-15)">━━━━━━━━━━━━━━━━━━━━━━━━━━━━━━━━━━━━━━━━━━━━━━━━━━━━━━━━━━━━━━━━━━━━━━━━━━━━━━━━━━━━━━━━━━━━━━━━━━━━━━━━━━━━━━━━━━━━━━━━━━━━━━━━━━</text><text class="terminal-2499006378-r1" x="1610.4" y="386" textLength="12.2" clip-path="url(#terminal-2499006378-line-15)">
</text><text class="terminal-2499006378-r4" x="0" y="410.4" textLength="1610.4" clip-path="url(#terminal-2499006378-line-16)">────────────────────────────────────────────────────────────────────────────────────────────────────────────────────────────────────</text><text class="terminal-2499006378-r1" x="1610.4" y="410.4" textLength="12.2" clip-path="url(#terminal-2499006378-line-16)">
</text><text class="terminal-2499006378-r5" x="12.2" y="434.8" textLength="329.4" clip-path="url(#terminal-2499006378-line-17)">Fedora-Server-dvd-x86_64-40</text><text class="terminal-2499006378-r6" x="1281" y="434.8" textLength="36.6" clip-path="url(#terminal-2499006378-line-17)">&#160;↑&#160;</text><text class="terminal-2499006378-r6" x="1317.6" y="434.8" textLength="36.6" clip-path="url(#terminal-2499006378-line-17)">0&#160;B</text><text class="terminal-2499006378-r6" x="1427.4" y="434.8" textLength="36.6" clip-path="url(#terminal-2499006378-line-17)">&#160;↓&#160;</text><text class="terminal-2499006378-r6" x="1464" y="434.8" textLength="73.2" clip-path="url(#terminal-2499006378-line-17)">378&#160;KB</text><text class="terminal-2499006378-r1" x="1610.4" y="434.8" textLength="12.2" clip-path="url(#terminal-2499006378-line-17)">
</text><text class="terminal-2499006378-r8" x="12.2" y="459.2" textLength="12.2" clip-path="url(#terminal-2499006378-line-18)">━</text><text class="terminal-2499006378-r8" x="24.4" y="459.2" textLength="12.2" clip-path="url(#terminal-2499006378-line-18)">╸</text><text class="terminal-2499006378-r9" x="36.6" y="459.2" textLength="1561.6" clip-path="url(#terminal-2499006378-line-18)">━━━━━━━━━━━━━━━━━━━━━━━━━━━━━━━━━━━━━━━━━━━━━━━━━━━━━━━━━━━━━━━━━━━━━━━━━━━━━━━━━━━━━━━━━━━━━━━━━━━━━━━━━━━━━━━━━━━━━━━━━━━━━━━━</text><text class="terminal-2499006378-r1" x="1610.4" y="459.2" textLength="12.2" clip-path="url(#terminal-2499006378-line-18)">
</text><text class="terminal-2499006378-r4" x="0" y="483.6" textLength="1610.4" clip-path="url(#terminal-2499006378-line-19)">────────────────────────────────────────────────────────────────────────────────────────────────────────────────────────────────────</text><text class="terminal-2499006378-r1" x="1610.4" y="483.6" textLength="12.2" clip-path="url(#terminal-2499006378-line-19)">
</text><text class="terminal-2499006378-r5" x="12.2" y="508" textLength="390.4" clip-path="url(#terminal-2499006378-line-20)">ubuntu-22.04.5-desktop-amd64.iso</text><text class="terminal-2499006378-r6" x="1281" y="508" textLength="36.6" clip-path="url(#terminal-2499006378-line-20)">&#160;↑&#160;</text><text class="terminal-2499006378-r6" x="1317.6" y="508" textLength="36.6" clip-path="url(#terminal-2499006378-line-20)">0&#160;B</text><text class="terminal-2499006378-r6" x="1427.4" y="508" textLength="36.6" clip-path="url(#terminal-2499006378-line-20)">&#160;↓&#160;</text><text class="terminal-2499006378-r6" x="1464" y="508" textLength="36.6" clip-path="url(#terminal-2499006378-line-20)">0&#160;B</text><text class="terminal-2499006378-r1" x="1610.4" y="508" textLength="12.2" clip-path="url(#terminal-2499006378-line-20)">
</text><text class="terminal-2499006378-r10" x="12.2" y="532.4" textLength="1586" clip-path="url(#terminal-2499006378-line-21)">━━━━━━━━━━━━━━━━━━━━━━━━━━━━━━━━━━━━━━━━━━━━━━━━━━━━━━━━━━━━━━━━━━━━━━━━━━━━━━━━━━━━━━━━━━━━━━━━━━━━━━━━━━━━━━━━━━━━━━━━━━━━━━━━━━</text><text class="terminal-2499006378-r1" x="1610.4" y="532.4" textLength="12.2" clip-path="url(#terminal-2499006378-line-21)">
</text><text class="terminal-2499006378-r4" x="0" y="556.8" textLength="1610.4" clip-path="url(#terminal-2499006378-line-22)">────────────────────────────────────────────────────────────────────────────────────────────────────────────────────────────────────</text><text class="terminal-2499006378-r1" x="1610.4" y="556.8" textLength="12.2" clip-path="url(#terminal-2499006378-line-22)">
</text><text class="terminal-2499006378-r11" x="12.2" y="581.2" textLength="439.2" clip-path="url(#terminal-2499006378-line-23)">ubuntu-22.04.5-live-server-amd64.iso</text><text class="terminal-2499006378-r12" x="1281" y="581.2" textLength="36.6" clip-path="url(#terminal-2499006378-line-23)">&#160;↑&#160;</text><text class="terminal-2499006378-r12" x="1317.6" y="581.2" textLength="36.6" clip-path="url(#terminal-2499006378-line-23)">0&#160;B</text><text class="terminal-2499006378-r12" x="1427.4" y="581.2" textLength="36.6" clip-path="url(#terminal-2499006378-line-23)">&#160;↓&#160;</text><text class="terminal-2499006378-r12" x="1464" y="581.2" textLength="36.6" clip-path="url(#terminal-2499006378-line-23)">0&#160;B</text><text class="terminal-2499006378-r1" x="1610.4" y="581.2" textLength="12.2" clip-path="url(#terminal-2499006378-line-23)">
</text><text class="terminal-2499006378-r7" x="12.2" y="605.6" textLength="1586" clip-path="url(#terminal-2499006378-line-24)">━━━━━━━━━━━━━━━━━━━━━━━━━━━━━━━━━━━━━━━━━━━━━━━━━━━━━━━━━━━━━━━━━━━━━━━━━━━━━━━━━━━━━━━━━━━━━━━━━━━━━━━━━━━━━━━━━━━━━━━━━━━━━━━━━━</text><text class="terminal-2499006378-r1" x="1610.4" y="605.6" textLength="12.2" clip-path="url(#terminal-2499006378-line-24)">
</text><text class="terminal-2499006378-r4" x="0" y="630" textLength="1610.4" clip-path="url(#terminal-2499006378-line-25)">────────────────────────────────────────────────────────────────────────────────────────────────────────────────────────────────────</text><text class="terminal-2499006378-r1" x="1610.4" y="630" textLength="12.2" clip-path="url(#terminal-2499006378-line-25)">
</text><text class="terminal-2499006378-r5" x="12.2" y="654.4" textLength="390.4" clip-path="url(#terminal-2499006378-line-26)">ubuntu-24.04.1-desktop-amd64.iso</text><text class="terminal-2499006378-r6" x="1281" y="654.4" textLength="36.6" clip-path="url(#terminal-2499006378-line-26)">&#160;↑&#160;</text><text class="terminal-2499006378-r6" x="1317.6" y="654.4" textLength="36.6" clip-path="url(#terminal-2499006378-line-26)">0&#160;B</text><text class="terminal-2499006378-r6" x="1427.4" y="654.4" textLength="36.6" clip-path="url(#terminal-2499006378-line-26)">&#160;↓&#160;</text><text class="terminal-2499006378-r6" x="1464" y="654.4" textLength="36.6" clip-path="url(#terminal-2499006378-line-26)">0&#160;B</text><text class="terminal-2499006378-r1" x="1610.4" y="654.4" textLength="12.2" clip-path="url(#terminal-2499006378-line-26)">
</text><text class="terminal-2499006378-r7" x="12.2" y="678.8" textLength="1586" clip-path="url(#terminal-2499006378-line-27)">━━━━━━━━━━━━━━━━━━━━━━━━━━━━━━━━━━━━━━━━━━━━━━━━━━━━━━━━━━━━━━━━━━━━━━━━━━━━━━━━━━━━━━━━━━━━━━━━━━━━━━━━━━━━━━━━━━━━━━━━━━━━━━━━━━</text><text class="terminal-2499006378-r1" x="1610.4" y="678.8" textLength="12.2" clip-path="url(#terminal-2499006378-line-27)">
</text><text class="terminal-2499006378-r4" x="0" y="703.2" textLength="1610.4" clip-path="url(#terminal-2499006378-line-28)">────────────────────────────────────────────────────────────────────────────────────────────────────────────────────────────────────</text><text class="terminal-2499006378-r1" x="1610.4" y="703.2" textLength="12.2" clip-path="url(#terminal-2499006378-line-28)">
</text><text class="terminal-2499006378-r5" x="12.2" y="727.6" textLength="439.2" clip-path="url(#terminal-2499006378-line-29)">ubuntu-24.04.1-live-server-amd64.iso</text><text class="terminal-2499006378-r6" x="1281" y="727.6" textLength="36.6" clip-path="url(#terminal-2499006378-line-29)">&#160;↑&#160;</text><text class="terminal-2499006378-r6" x="1317.6" y="727.6" textLength="36.6" clip-path="url(#terminal-2499006378-line-29)">0&#160;B</text><text class="terminal-2499006378-r6" x="1427.4" y="727.6" textLength="36.6" clip-path="url(#terminal-2499006378-line-29)">&#160;↓&#160;</text><text class="terminal-2499006378-r6" x="1464" y="727.6" textLength="36.6" clip-path="url(#terminal-2499006378-line-29)">0&#160;B</text><text class="terminal-2499006378-r1" x="1610.4" y="727.6" textLength="12.2" clip-path="url(#terminal-2499006378-line-29)">
</text><text class="terminal-2499006378-r7" x="12.2" y="752" textLength="1586" clip-path="url(#terminal-2499006378-line-30)">━━━━━━━━━━━━━━━━━━━━━━━━━━━━━━━━━━━━━━━━━━━━━━━━━━━━━━━━━━━━━━━━━━━━━━━━━━━━━━━━━━━━━━━━━━━━━━━━━━━━━━━━━━━━━━━━━━━━━━━━━━━━━━━━━━</text><text class="terminal-2499006378-r1" x="1610.4" y="752" textLength="12.2" clip-path="url(#terminal-2499006378-line-30)">
</text><text class="terminal-2499006378-r4" x="0" y="776.4" textLength="1610.4" clip-path="url(#terminal-2499006378-line-31)">────────────────────────────────────────────────────────────────────────────────────────────────────────────────────────────────────</text><text class="terminal-2499006378-r1" x="1610.4" y="776.4" textLength="12.2" clip-path="url(#terminal-2499006378-line-31)">
</text><text class="terminal-2499006378-r5" x="12.2" y="800.8" textLength="366" clip-path="url(#terminal-2499006378-line-32)">ubuntu-24.10-desktop-amd64.iso</text><text class="terminal-2499006378-r6" x="1281" y="800.8" textLength="36.6" clip-path="url(#terminal-2499006378-line-32)">&#160;↑&#160;</text><text class="terminal-2499006378-r6" x="1317.6" y="800.8" textLength="36.6" clip-path="url(#terminal-2499006378-line-32)">0&#160;B</text><text class="terminal-2499006378-r6" x="1427.4" y="800.8" textLength="36.6" clip-path="url(#terminal-2499006378-line-32)">&#160;↓&#160;</text><text class="terminal-2499006378-r6" x="1464" y="800.8" textLength="36.6" clip-path="url(#terminal-2499006378-line-32)">0&#160;B</text><text class="terminal-2499006378-r1" x="1610.4" y="800.8" textLength="12.2" clip-path="url(#terminal-2499006378-line-32)">
</text><text class="terminal-2499006378-r7" x="12.2" y="825.2" textLength="1586" clip-path="url(#terminal-2499006378-line-33)">━━━━━━━━━━━━━━━━━━━━━━━━━━━━━━━━━━━━━━━━━━━━━━━━━━━━━━━━━━━━━━━━━━━━━━━━━━━━━━━━━━━━━━━━━━━━━━━━━━━━━━━━━━━━━━━━━━━━━━━━━━━━━━━━━━</text><text class="terminal-2499006378-r1" x="1610.4" y="825.2" textLength="12.2" clip-path="url(#terminal-2499006378-line-33)">
</text><text class="terminal-2499006378-r1" x="1610.4" y="849.6" textLength="12.2" clip-path="url(#terminal-2499006378-line-34)">
</text><text class="terminal-2499006378-r1" x="1610.4" y="874" textLength="12.2" clip-path="url(#terminal-2499006378-line-35)">
</text><text class="terminal-2499006378-r1" x="1610.4" y="898.4" textLength="12.2" clip-path="url(#terminal-2499006378-line-36)">
</text><text class="terminal-2499006378-r2" x="12.2" y="922.8" textLength="634.4" clip-path="url(#terminal-2499006378-line-37)">Torrents:&#160;11&#160;(Downloading:&#160;3,&#160;Seeding:&#160;7,&#160;Paused:&#160;1)</text><text class="terminal-2499006378-r2" x="1293.2" y="922.8" textLength="12.2" clip-path="url(#terminal-2499006378-line-37)">↑</text><text class="terminal-2499006378-r2" x="1317.6" y="922.8" textLength="36.6" clip-path="url(#terminal-2499006378-line-37)">0&#160;B</text><text class="terminal-2499006378-r2" x="1439.6" y="922.8" textLength="12.2" clip-path="url(#terminal-2499006378-line-37)">↓</text><text class="terminal-2499006378-r2" x="1464" y="922.8" textLength="85.4" clip-path="url(#terminal-2499006378-line-37)">4.74&#160;MB</text>
    </g>
    </g>
</svg>
